<mxfile host="65bd71144e">
    <diagram id="vAeUh7GE5oxJhPm7hiSd" name="Page-1">
        <mxGraphModel dx="1114" dy="1252" grid="1" gridSize="10" guides="1" tooltips="1" connect="1" arrows="1" fold="1" page="1" pageScale="1" pageWidth="850" pageHeight="1100" background="none" math="0" shadow="0">
            <root>
                <mxCell id="0"/>
                <mxCell id="1" parent="0"/>
                <mxCell id="2" value="" style="whiteSpace=wrap;html=1;fillColor=#758F6C;movable=0;resizable=0;rotatable=0;deletable=0;editable=0;connectable=0;opacity=70;" parent="1" vertex="1">
                    <mxGeometry width="850" height="200" as="geometry"/>
                </mxCell>
                <mxCell id="3" value="&lt;font face=&quot;Verdana&quot; style=&quot;font-size: 36px;&quot;&gt;My&lt;br&gt;Trails&lt;/font&gt;" style="text;strokeColor=none;align=left;fillColor=none;html=1;verticalAlign=middle;whiteSpace=wrap;rounded=0;fontColor=#999900;fontStyle=1;labelBorderColor=none;" parent="1" vertex="1">
                    <mxGeometry x="20" y="20" width="210" height="100" as="geometry"/>
                </mxCell>
                <mxCell id="6" value="&lt;div style=&quot;&quot;&gt;&lt;font face=&quot;Verdana&quot;&gt;&lt;span style=&quot;font-size: 24px;&quot;&gt;Log out&lt;/span&gt;&lt;/font&gt;&lt;/div&gt;" style="text;strokeColor=none;align=right;fillColor=none;html=1;verticalAlign=middle;whiteSpace=wrap;rounded=0;fontColor=#999900;fontStyle=1;labelBorderColor=none;" parent="1" vertex="1">
                    <mxGeometry x="690" y="10" width="150" height="60" as="geometry"/>
                </mxCell>
                <mxCell id="18" value="&lt;font style=&quot;font-size: 24px;&quot; color=&quot;#758f6c&quot;&gt;Leave a review for the Rohan Roundabout trail &lt;u&gt;here&lt;/u&gt;!&lt;/font&gt;" style="text;strokeColor=none;align=left;fillColor=none;html=1;verticalAlign=middle;whiteSpace=wrap;rounded=0;fontColor=#B3B300;" parent="1" vertex="1">
                    <mxGeometry x="40" y="240" width="630" height="160" as="geometry"/>
                </mxCell>
                <mxCell id="56" value="&lt;font style=&quot;font-size: 32px;&quot; color=&quot;#758f6c&quot;&gt;3.5&lt;/font&gt;" style="text;strokeColor=none;align=right;fillColor=none;html=1;verticalAlign=middle;whiteSpace=wrap;rounded=0;fontColor=#B3B300;fontStyle=1;spacingRight=5;" parent="1" vertex="1">
                    <mxGeometry x="730" y="215" width="70" height="80" as="geometry"/>
                </mxCell>
                <mxCell id="58" value="" style="shape=table;startSize=0;container=1;collapsible=0;childLayout=tableLayout;strokeColor=none;fillColor=none;" parent="1" vertex="1">
                    <mxGeometry x="40" y="360" width="760" height="350" as="geometry"/>
                </mxCell>
                <mxCell id="59" value="" style="shape=tableRow;horizontal=0;startSize=0;swimlaneHead=0;swimlaneBody=0;top=0;left=0;bottom=0;right=0;collapsible=0;dropTarget=0;fillColor=none;points=[[0,0.5],[1,0.5]];portConstraint=eastwest;" parent="58" vertex="1">
                    <mxGeometry width="760" height="70" as="geometry"/>
                </mxCell>
                <mxCell id="60" value="&lt;font style=&quot;font-size: 24px;&quot;&gt;Username1&lt;/font&gt;" style="shape=partialRectangle;html=1;whiteSpace=wrap;connectable=0;overflow=hidden;fillColor=none;top=0;left=0;bottom=0;right=0;pointerEvents=1;fontSize=11;align=left;fontStyle=1;spacingLeft=5;fontColor=#758F6C;" parent="59" vertex="1">
                    <mxGeometry width="380" height="70" as="geometry">
                        <mxRectangle width="380" height="70" as="alternateBounds"/>
                    </mxGeometry>
                </mxCell>
                <mxCell id="61" value="4.0" style="shape=partialRectangle;html=1;whiteSpace=wrap;connectable=0;overflow=hidden;fillColor=none;top=0;left=0;bottom=0;right=0;pointerEvents=1;fontSize=24;align=right;fontStyle=1;spacingRight=5;fontColor=#758F6C;" parent="59" vertex="1">
                    <mxGeometry x="380" width="380" height="70" as="geometry">
                        <mxRectangle width="380" height="70" as="alternateBounds"/>
                    </mxGeometry>
                </mxCell>
                <mxCell id="62" value="" style="shape=tableRow;horizontal=0;startSize=0;swimlaneHead=0;swimlaneBody=0;top=0;left=0;bottom=0;right=0;collapsible=0;dropTarget=0;fillColor=none;points=[[0,0.5],[1,0.5]];portConstraint=eastwest;" parent="58" vertex="1">
                    <mxGeometry y="70" width="760" height="140" as="geometry"/>
                </mxCell>
                <mxCell id="63" value="&lt;font style=&quot;font-size: 24px;&quot;&gt;I had the loveliest holiday traipsing across the fields of Rohan. Only four stars because the Uruk-hai attacked our campsite. I know the Rangers of the North are busy, but it really detracted from the whole experience. Watch out!&lt;/font&gt;" style="shape=partialRectangle;html=1;whiteSpace=wrap;connectable=0;overflow=hidden;fillColor=none;top=0;left=0;bottom=0;right=0;pointerEvents=1;rowspan=1;colspan=2;align=left;spacingLeft=5;fontColor=#758F6C;" parent="62" vertex="1">
                    <mxGeometry width="760" height="140" as="geometry">
                        <mxRectangle width="380" height="140" as="alternateBounds"/>
                    </mxGeometry>
                </mxCell>
                <mxCell id="64" value="" style="shape=partialRectangle;html=1;whiteSpace=wrap;connectable=0;overflow=hidden;fillColor=none;top=0;left=0;bottom=0;right=0;pointerEvents=1;" parent="62" vertex="1" visible="0">
                    <mxGeometry x="380" width="380" height="140" as="geometry">
                        <mxRectangle width="380" height="140" as="alternateBounds"/>
                    </mxGeometry>
                </mxCell>
                <mxCell id="65" value="" style="shape=tableRow;horizontal=0;startSize=0;swimlaneHead=0;swimlaneBody=0;top=0;left=0;bottom=0;right=0;collapsible=0;dropTarget=0;fillColor=none;points=[[0,0.5],[1,0.5]];portConstraint=eastwest;align=left;fontStyle=1" parent="58" vertex="1">
                    <mxGeometry y="210" width="760" height="70" as="geometry"/>
                </mxCell>
                <mxCell id="66" value="Username2" style="shape=partialRectangle;html=1;whiteSpace=wrap;connectable=0;overflow=hidden;fillColor=none;top=0;left=0;bottom=0;right=0;pointerEvents=1;fontSize=24;align=left;fontStyle=1;spacingLeft=5;fontColor=#758F6C;" parent="65" vertex="1">
                    <mxGeometry width="380" height="70" as="geometry">
                        <mxRectangle width="380" height="70" as="alternateBounds"/>
                    </mxGeometry>
                </mxCell>
                <mxCell id="67" value="3.0" style="shape=partialRectangle;html=1;whiteSpace=wrap;connectable=0;overflow=hidden;fillColor=none;top=0;left=0;bottom=0;right=0;pointerEvents=1;fontSize=24;fontStyle=1;align=right;spacingRight=5;fontColor=#758F6C;" parent="65" vertex="1">
                    <mxGeometry x="380" width="380" height="70" as="geometry">
                        <mxRectangle width="380" height="70" as="alternateBounds"/>
                    </mxGeometry>
                </mxCell>
                <mxCell id="68" value="" style="shape=tableRow;horizontal=0;startSize=0;swimlaneHead=0;swimlaneBody=0;top=0;left=0;bottom=0;right=0;collapsible=0;dropTarget=0;fillColor=none;points=[[0,0.5],[1,0.5]];portConstraint=eastwest;" parent="58" vertex="1">
                    <mxGeometry y="280" width="760" height="70" as="geometry"/>
                </mxCell>
                <mxCell id="69" value="Lovely scenery, but some folks seem to think it's okay to leave a trace behind!" style="shape=partialRectangle;html=1;whiteSpace=wrap;connectable=0;overflow=hidden;fillColor=none;top=0;left=0;bottom=0;right=0;pointerEvents=1;rowspan=1;colspan=2;fontSize=24;align=left;spacingLeft=5;fontColor=#758F6C;" parent="68" vertex="1">
                    <mxGeometry width="760" height="70" as="geometry">
                        <mxRectangle width="380" height="70" as="alternateBounds"/>
                    </mxGeometry>
                </mxCell>
                <mxCell id="70" value="" style="shape=partialRectangle;html=1;whiteSpace=wrap;connectable=0;overflow=hidden;fillColor=none;top=0;left=0;bottom=0;right=0;pointerEvents=1;" parent="68" vertex="1" visible="0">
                    <mxGeometry x="380" width="380" height="70" as="geometry">
                        <mxRectangle width="380" height="70" as="alternateBounds"/>
                    </mxGeometry>
                </mxCell>
                <mxCell id="71" value="&lt;font color=&quot;#758f6c&quot;&gt;&lt;span style=&quot;font-size: 32px;&quot;&gt;&lt;u&gt;Rohan Roundabout Reviews&lt;/u&gt;&lt;/span&gt;&lt;/font&gt;" style="text;strokeColor=none;align=left;fillColor=none;html=1;verticalAlign=middle;whiteSpace=wrap;rounded=0;fontColor=#B3B300;" vertex="1" parent="1">
                    <mxGeometry x="40.5" y="230" width="429.5" height="50" as="geometry"/>
                </mxCell>
                <mxCell id="72" value="&lt;div style=&quot;&quot;&gt;&lt;font face=&quot;Verdana&quot;&gt;&lt;span style=&quot;font-size: 24px;&quot;&gt;Parks&lt;span style=&quot;white-space: pre;&quot;&gt;&#9;&lt;/span&gt;Trails&amp;nbsp;&lt;span style=&quot;white-space: pre;&quot;&gt;&#9;&lt;/span&gt;My Reviews&lt;/span&gt;&lt;/font&gt;&lt;/div&gt;" style="text;strokeColor=none;align=center;fillColor=none;html=1;verticalAlign=middle;whiteSpace=wrap;rounded=0;fontColor=#999900;fontStyle=1;labelBorderColor=none;strokeOpacity=100;" vertex="1" parent="1">
                    <mxGeometry x="194" y="120" width="462" height="60" as="geometry"/>
                </mxCell>
            </root>
        </mxGraphModel>
    </diagram>
</mxfile>